<svg width="927" height="621" viewBox="0 0 927 621" fill="none" xmlns="http://www.w3.org/2000/svg">
<path d="M501.932 73.2627H434.093L434.093 105.948C473.839 105.803 506.865 102.248 506.865 170.086H538.934L501.932 73.2627Z" fill="black"/>
<path d="M434.093 33.1765C366.255 28.2428 323.086 41.8104 304.584 113.349C304.584 136.784 305.373 153.859 323.086 175.02C310.474 217.38 294.861 233.165 256.481 251.492C356.538 273.743 373.676 302.276 399.558 355.1L418.059 334.132C411.036 288.12 397.387 277.361 377.356 251.492C364.06 226.478 361.95 213.473 368.722 192.288C344.654 163.778 333.014 147.486 342.82 113.349C361.823 73.6952 387.609 73.5409 433.001 73.2693L434.093 73.2627L434.093 33.1765Z" fill="black"/>
<path d="M434.093 113.349L434.093 236.691C456.061 244.439 472.379 244.061 501.932 242.858C497.312 230.122 494.481 222.8 490.831 210.789H510.566L510.566 198.455H483.43C487.297 132.163 472.173 119.703 434.093 113.349Z" fill="black"/>
<path d="M439.027 272.461L439.027 318.097C483.43 304.53 511.605 313.058 538.934 348.933L683.245 299.596C618.223 243.76 568.537 236.691 510.566 272.461H439.027Z" fill="black"/>
<path d="M143.006 346.466C209.047 349.406 239.793 361.979 277.449 414.304C282.383 315.63 271.309 314.711 251.547 286.028C231.785 257.346 164.188 276.687 149.173 313.164L143.006 346.466Z" fill="black"/>
<path d="M143.006 361.267C224.951 374.803 257.236 393.319 277.449 456.241C246.502 478.969 243.258 495.567 237.979 525.312C274.721 476.203 302.031 459.086 352.688 431.572L399.558 493.243C352.911 529.17 328.967 548.447 272.515 588.217C244.886 601.044 217.422 582.05 207.144 570.949C160.484 481.849 142.631 413.659 143.006 361.267Z" fill="black"/>
<path d="M554.969 366.201L699.279 308.23L659.81 205.856L733.815 170.086L779.452 304.53C783.16 327.341 788.225 338.487 769.584 373.601C727.745 396.336 706.412 401.401 669.677 405.67C616.983 414.778 592.2 405.112 554.969 366.201Z" fill="black"/>
<path d="M411.892 505.577L325.552 574.649L325.552 591.917H411.892L411.892 505.577Z" fill="black"/>
<path d="M550.035 377.301C582.598 416.771 560.314 489.954 545.102 521.612C531.048 554.705 524.444 571.792 521.667 591.917H459.995L458.762 526.546C458.762 499.904 486.72 484.198 500.698 479.676C536.221 463.888 548.391 433.628 550.035 420.471C552.656 403.221 552.624 393.782 550.035 377.301Z" fill="black"/>
<path d="M399.558 355.1C372.006 319.112 354.621 312.541 323.086 304.53L323.086 426.638L389.69 382.235L399.558 355.1Z" fill="black"/>
<path d="M395.857 401.97L377.356 414.304L425.46 479.676L445.194 466.108L395.857 401.97Z" fill="black"/>
<path d="M419.292 377.301H431.627C451.361 334.132 496.998 351.4 510.566 371.134C519.2 388.402 516.163 413.841 500.698 437.739C569.77 395.803 510.566 336.599 484.664 334.132C435.327 329.433 425.811 359.055 419.292 377.301Z" fill="black"/>
<path d="M622.807 136.784C586.298 124.943 583.749 94.0254 587.038 80.0466C604.218 32.9065 647.329 45.4766 665.977 55.3781C681.743 71.6108 686.518 84.0016 690.645 109.649L706.68 102.248C699.773 60.8052 679.956 43.0439 670.911 39.3436C624.534 11.7149 589.094 40.9882 577.171 59.0784C553.274 114.246 595.487 147.08 622.807 136.784Z" fill="black"/>
<path d="M647.476 187.354L636.375 161.452L714.08 125.683L723.948 150.352L647.476 187.354Z" fill="black"/>
</svg>
